<svg width="19" height="12" viewBox="0 0 19 12" fill="none" xmlns="http://www.w3.org/2000/svg">
<path d="M1.43929 1.43935L1.43918 1.43946C1.15797 1.72075 1 2.10221 1 2.49996C1 2.89771 1.15797 3.27917 1.43918 3.56046L1.43923 3.56051L8.43923 10.5605L8.43929 10.5606C8.72058 10.8418 9.10204 10.9997 9.49979 10.9997C9.89753 10.9997 10.279 10.8418 10.5603 10.5606L10.5603 10.5605L17.5576 3.56324C17.6993 3.42555 17.8123 3.26123 17.8903 3.07971C17.9689 2.89671 18.0103 2.69988 18.012 2.50071C18.0138 2.30154 17.9758 2.10402 17.9004 1.91967C17.825 1.73533 17.7136 1.56785 17.5727 1.42701C17.4319 1.28617 17.2644 1.17479 17.0801 1.09937C16.8957 1.02395 16.6982 0.985997 16.499 0.987728C16.2999 0.989458 16.103 1.03084 15.92 1.10945C15.7385 1.18743 15.5742 1.30051 15.4365 1.44216L9.49979 7.37885L3.56034 1.43941L3.56029 1.43935C3.27899 1.15815 2.89753 1.00017 2.49979 1.00017C2.10204 1.00017 1.72058 1.15815 1.43929 1.43935Z" fill="#C97AEF" stroke="#C97AEF"/>
</svg>
