<svg width="19" height="12" viewBox="0 0 19 12" fill="none" xmlns="http://www.w3.org/2000/svg">
<path d="M1.43918 10.2912L1.43929 10.2913C1.72058 10.5726 2.10204 10.7305 2.49979 10.7305C2.89753 10.7305 3.27899 10.5726 3.56029 10.2913L3.56034 10.2913L9.49979 4.35185L15.4392 10.2913L15.4392 10.2914L15.4454 10.2974C15.7283 10.5706 16.1072 10.7218 16.5005 10.7184C16.8938 10.715 17.27 10.5572 17.5482 10.2791C17.8263 10.001 17.984 9.62478 17.9874 9.23149C17.9909 8.83819 17.8397 8.45929 17.5664 8.17639L17.5665 8.17633L17.5603 8.17019L10.5603 1.17019L10.5603 1.17014C10.279 0.88893 9.89753 0.730957 9.49979 0.730957C9.10204 0.730957 8.72058 0.88893 8.43929 1.17014L8.43923 1.17019L1.43923 8.17019L1.43918 8.17024C1.15797 8.45153 1 8.833 1 9.23074C1 9.62849 1.15797 10.01 1.43918 10.2912Z" fill="white" stroke="white"/>
</svg>
