<svg width="156" height="57" viewBox="0 0 156 57" fill="none" xmlns="http://www.w3.org/2000/svg">
<path d="M57.5592 12.3845C54.5972 18.4194 55.448 24.2657 59.6705 29.3891C63.7039 34.3239 69.1868 35.8955 75.3945 34.7325C80.3418 33.7896 83.7765 30.8035 86.2659 26.5602C86.8646 25.6802 86.8646 25.5544 87.1167 24.6743C88.7237 19.3309 88.2826 14.2704 84.8479 9.74426C77.4742 0.0632836 62.9161 1.44628 57.5592 12.3845ZM77.6633 30.5521C77.3482 30.7721 77.0646 31.0864 76.5919 30.8664C76.6865 30.4892 76.9701 30.3635 77.3167 30.3006C79.9636 28.1947 81.8228 25.523 82.2009 22.1284C82.7996 17.0364 80.909 12.8874 76.5289 10.2157C72.2119 7.6069 67.7058 7.76406 63.3888 10.4672C63.0106 10.7186 62.601 10.9387 62.2229 11.1901C62.1913 11.1901 62.1598 11.1273 62.0968 11.0958C63.7669 7.88979 69.1553 5.87816 74.008 6.60109C79.2074 7.38688 83.5874 11.8502 84.4697 17.225C85.352 22.6941 82.7051 27.9118 77.6633 30.5521Z" fill="#C97AEF"/>
<path d="M156 1.72917C156 0.974804 155.811 0.72335 155.023 0.754782C153.668 0.817645 152.282 0.849077 150.927 0.754782C149.603 0.629055 149.131 0.974804 149.162 2.42066C149.288 6.00388 149.194 9.5871 149.194 13.4532C144.688 9.02133 138.07 11.473 136.715 16.8793C135.423 21.9712 135.329 27.0632 136.81 32.0922C138.007 36.0841 141.253 38.0643 145.16 37.5299C147.019 37.2785 148.28 36.0841 149.572 34.7011C149.635 35.1725 149.698 35.424 149.666 35.6755C149.509 37.027 150.17 37.3413 151.399 37.247C152.597 37.1527 153.794 37.1842 155.023 37.247C155.779 37.2785 155.968 37.027 155.968 36.2727C155.968 24.7372 155.968 13.2332 156 1.72917ZM149.225 29.1691C149.225 30.835 148.5 31.6522 146.893 31.9351C145.097 32.2494 143.963 31.7151 143.364 30.2063C142.293 27.5032 142.639 24.7058 142.702 21.9083C142.734 20.8711 142.828 19.8339 143.206 18.8595C143.837 17.2565 145.066 16.5021 146.767 16.7535C148.437 17.005 149.225 17.9794 149.257 19.8024C149.257 21.374 149.257 22.9142 149.257 24.4858C149.257 26.0573 149.225 27.5975 149.225 29.1691Z" fill="#C97AEF"/>
<path d="M45.1753 11.1273C43.0326 10.9701 41.2679 11.7559 39.6294 13.4532C39.6294 9.46138 39.5663 5.78386 39.6609 2.10635C39.6924 0.974804 39.3458 0.691918 38.2744 0.754782C37.0139 0.849077 35.7535 0.880509 34.4931 0.754782C33.1696 0.629055 32.8545 1.0691 32.8545 2.38923C32.9175 12.856 32.886 23.3228 32.886 33.7896C32.886 37.1842 32.886 37.1842 36.2262 37.1842C38.8101 37.1842 38.8101 37.1842 39.4718 34.8897C40.6692 36.3041 41.9927 37.3413 43.9149 37.5299C47.6962 37.9071 50.8158 36.1155 51.8872 32.5323C53.4628 27.1889 53.4943 21.7512 51.9187 16.4078C50.9104 12.9817 48.6416 11.3787 45.1753 11.1273ZM45.6795 30.112C45.3644 31.6208 43.8204 32.3123 42.0557 32.0294C40.4171 31.7779 39.5979 30.8664 39.5979 29.2005C39.5979 27.5975 39.5979 25.963 39.5979 24.36C39.5979 22.757 39.5979 21.1226 39.5979 19.5195C39.5979 18.1365 40.5117 17.0679 41.8352 16.8164C43.6943 16.4707 45.1753 17.0364 45.5535 18.5452C46.5933 22.3798 46.4988 26.2459 45.6795 30.112Z" fill="#C97AEF"/>
<path d="M132.997 20.5568C132.997 18.6394 132.776 16.7221 131.989 14.9305C130.98 12.6674 129.373 11.3473 126.758 11.1587C124.111 10.9701 122.031 12.0073 120.235 13.8933C119.951 11.5673 119.951 11.5673 117.777 11.5673C117.525 11.5673 117.241 11.5359 116.989 11.5044C114.72 11.5044 115.13 11.5044 113.491 11.8816C113.523 12.4474 113.554 13.0132 113.554 13.6104C113.554 21.0597 113.586 28.509 113.523 35.9583C113.523 36.9956 113.775 37.3099 114.815 37.247C116.233 37.1527 117.651 37.1527 119.069 37.247C120.172 37.3413 120.455 36.9956 120.455 35.8955C120.392 30.4892 120.424 25.0515 120.424 19.6453C120.424 19.0166 120.424 18.4194 120.865 17.8851C121.842 16.7535 123.039 16.5021 124.394 16.9107C125.844 17.3193 126.064 18.5766 126.096 19.771C126.19 25.1773 126.222 30.6149 126.222 36.0212C126.222 36.9327 126.38 37.3413 127.388 37.247C128.837 37.1527 130.318 37.1527 131.799 37.247C132.745 37.3099 133.028 37.027 133.028 36.0526C132.997 30.8664 133.06 25.7116 132.997 20.5568Z" fill="#C97AEF"/>
<path d="M110.057 11.5044C108.261 11.473 108.198 11.5044 107.221 11.5044C106.181 11.5359 105.141 11.5359 104.101 11.5673C103.723 13.076 103.597 14.7105 103.723 16.1563C104.007 19.5824 103.818 23.0085 103.881 26.4345C103.912 27.7232 104.101 29.0119 103.723 30.3006C103.093 31.7151 101.895 32.0922 100.446 31.9665C99.0594 31.8408 98.5552 30.9293 98.3661 29.7349C98.051 27.8804 98.114 26.0259 98.3031 24.1714C98.7128 19.9596 98.5867 15.7477 98.051 11.5673C95.8768 11.5673 93.671 11.5673 91.4967 11.5673C91.1816 12.0388 91.3391 12.5731 91.3391 13.076C91.3391 17.445 91.2761 21.8141 91.3707 26.2145C91.4022 27.1575 91.4022 27.1575 91.4337 29.0748C91.5597 30.0492 91.6227 31.0236 91.8433 31.9979C92.6311 35.8012 95.5932 37.9071 99.406 37.5614C101.36 37.3728 102.809 36.3355 104.479 34.7639C103.912 37.1527 105.046 37.3413 106.622 37.2156C107.725 37.1213 108.828 37.1842 109.899 37.2156C110.529 37.247 110.845 37.0899 110.845 36.367C110.845 28.4147 110.845 20.4625 110.876 12.5103C110.876 11.9131 110.782 11.473 110.057 11.5044Z" fill="#C97AEF"/>
<path d="M30.0185 24.2029C30.0185 21.6569 30.1445 19.0795 29.5458 16.5964C28.9471 14.2076 27.9387 12.1016 25.1973 11.4101C22.0777 10.5929 19.4938 11.473 17.1934 14.019C16.9414 11.5673 16.9414 11.5673 14.7356 11.5673C13.6957 11.5673 12.6243 11.5987 11.5845 11.5673C10.8597 11.5359 10.5761 11.7245 10.5761 12.5103C10.6076 20.4311 10.6076 28.3519 10.5761 36.2727C10.5761 36.9956 10.7337 37.2785 11.5214 37.247C12.9709 37.1842 14.452 37.1213 15.933 37.247C17.2565 37.3728 17.4455 36.807 17.414 35.6755C17.351 30.2692 17.3825 24.8315 17.3825 19.4252C17.3825 17.9479 18.3278 17.005 19.9034 16.7535C21.3844 16.5335 22.4243 17.1622 22.897 18.608C23.2121 19.6138 23.2121 20.6511 23.2121 21.6883C23.2121 26.4345 23.2436 31.1807 23.1806 35.8955C23.1806 36.8699 23.3381 37.2785 24.441 37.2156C25.859 37.1213 27.277 37.1213 28.695 37.2156C29.7034 37.2785 30.0185 36.9642 29.987 35.9269C29.987 32.0294 30.0185 28.1318 30.0185 24.2029Z" fill="#C97AEF"/>
<path d="M6.70023 11.8188C5.59734 10.9072 3.2025 11.5673 1.37485 11.5359C1.31183 11.5359 1.28032 11.5359 1.21729 11.5359C0.429516 11.4101 0.271961 11.7873 0.271961 12.5103C0.303472 20.4311 0.303472 28.3204 0.303472 36.2412C0.303472 36.9956 0.492539 37.2156 1.28032 37.2156C2.85587 37.1527 4.43143 37.1527 5.97548 37.2156C6.8893 37.247 7.10988 36.9327 7.07837 36.0841C7.04685 32.1865 7.04685 28.289 7.04685 24.36C7.04685 21.9083 7.07837 19.4567 7.04685 17.0364C7.01534 15.2134 7.83463 12.7617 6.70023 11.8188Z" fill="#C97AEF"/>
<path d="M6.19605 2.20064C5.91245 1.98062 5.59734 1.79203 5.31374 1.57201C4.0533 1.44628 2.76134 1.25769 1.56392 1.82346C-0.0116395 3.45791 -0.389773 4.99807 0.398005 6.53822C1.09125 7.92122 2.6353 8.64415 4.3369 8.36126C5.81792 8.14124 6.70023 7.19829 7.23592 5.87816C7.99219 4.14941 7.67708 3.0493 6.19605 2.20064Z" fill="#C97AEF"/>
<path d="M77.3167 30.3006C77.0016 30.3949 76.6865 30.4892 76.5919 30.8664C77.0646 31.0864 77.3482 30.7721 77.6633 30.5521C77.5058 30.4892 77.3482 30.4892 77.3167 30.3006Z" fill="#C97AEF"/>
<path d="M77.6633 30.5521C77.5373 30.4578 77.4112 30.3635 77.3167 30.2692C77.3482 30.4892 77.5058 30.4892 77.6633 30.5521Z" fill="#C97AEF"/>
<path d="M1.48577 41.6701H6.39394L9.78391 51.2543H9.82551L13.2363 41.6701H18.1237V56.3575H14.8793V45.093H14.8377L10.9694 56.3575H8.49448L4.77175 45.093H4.73016V56.3575H1.48577V41.6701Z" fill="#C97AEF"/>
<path d="M25.9712 41.6701H28.6541L35.0597 56.3575H31.3993L30.1307 53.2458H24.4114L23.1844 56.3575H19.6072L25.9712 41.6701ZM27.2191 45.9436L25.4305 50.5075H29.0285L27.2191 45.9436Z" fill="#C97AEF"/>
<path d="M36.5407 41.6701H42.2392C42.9879 41.6701 43.695 41.7462 44.3605 41.8983C45.0399 42.0366 45.6291 42.2786 46.1283 42.6244C46.6413 42.9563 47.0433 43.4127 47.3345 43.9936C47.6395 44.5606 47.792 45.2728 47.792 46.1303C47.792 47.1675 47.5217 48.0527 46.9809 48.7856C46.4402 49.5048 45.6499 49.9612 44.6101 50.1548L48.3536 56.3575H44.4645L41.3865 50.4867H39.7851V56.3575H36.5407V41.6701ZM39.7851 47.7484H41.6984C41.9896 47.7484 42.2946 47.7415 42.6135 47.7276C42.9463 47.7 43.2444 47.6377 43.5078 47.5409C43.7712 47.4303 43.9861 47.2643 44.1525 47.0431C44.3328 46.8218 44.4229 46.5106 44.4229 46.1095C44.4229 45.7361 44.3466 45.4388 44.1941 45.2175C44.0416 44.9962 43.8475 44.8303 43.6118 44.7196C43.3761 44.5952 43.1057 44.5122 42.8007 44.4707C42.4957 44.4292 42.1976 44.4085 41.9064 44.4085H39.7851V47.7484Z" fill="#C97AEF"/>
<path d="M50.1512 41.6701H53.3956V47.7691L59.1149 41.6701H63.3576L56.8064 48.4952L63.9191 56.3575H59.3853L53.3956 49.3872V56.3575H50.1512V41.6701Z" fill="#C97AEF"/>
<path d="M65.1603 41.6701H75.1638V44.6574H68.4047V47.3957H74.7894V50.383H68.4047V53.3703H75.5381V56.3575H65.1603V41.6701Z" fill="#C97AEF"/>
<path d="M80.9846 44.5329H76.7836V41.6701H88.4301V44.5329H84.229V56.3575H80.9846V44.5329Z" fill="#C97AEF"/>
<path d="M90.036 41.6701H93.2804V56.3575H90.036V41.6701Z" fill="#C97AEF"/>
<path d="M96.2315 41.6701H100.641L106.901 51.8766H106.942V41.6701H110.187V56.3575H105.944L99.5175 45.9021H99.4759V56.3575H96.2315V41.6701Z" fill="#C97AEF"/>
<path d="M126.521 55.3203C125.565 55.8182 124.566 56.1778 123.527 56.399C122.487 56.6203 121.426 56.731 120.345 56.731C119.194 56.731 118.133 56.5512 117.163 56.1916C116.192 55.832 115.353 55.3203 114.646 54.6565C113.939 53.9788 113.384 53.1628 112.982 52.2086C112.594 51.2543 112.4 50.1894 112.4 49.0138C112.4 47.8383 112.594 46.7734 112.982 45.8191C113.384 44.8648 113.939 44.0558 114.646 43.3919C115.353 42.7143 116.192 42.1957 117.163 41.8361C118.133 41.4765 119.194 41.2967 120.345 41.2967C121.523 41.2967 122.605 41.4419 123.589 41.7324C124.587 42.009 125.461 42.493 126.209 43.1845L123.922 45.6739C123.478 45.2175 122.979 44.8718 122.424 44.6366C121.87 44.4015 121.176 44.284 120.345 44.284C119.651 44.284 119.02 44.4015 118.452 44.6366C117.897 44.8718 117.419 45.2037 117.017 45.6324C116.615 46.0473 116.303 46.5452 116.081 47.126C115.873 47.7069 115.769 48.3362 115.769 49.0138C115.769 49.7053 115.873 50.3415 116.081 50.9224C116.303 51.4894 116.615 51.9873 117.017 52.416C117.419 52.8309 117.897 53.1559 118.452 53.391C119.02 53.6261 119.651 53.7437 120.345 53.7437C121.052 53.7437 121.662 53.6676 122.175 53.5155C122.688 53.3495 123.097 53.1836 123.402 53.0176V50.6319H120.761V47.6447H126.521V55.3203Z" fill="#C97AEF"/>
<path d="M134.805 53.4118H128.379V50.7979L134.389 41.6701H137.8V50.7979H139.693V53.4118H137.8V56.3575H134.805V53.4118ZM134.805 45.7361H134.764L131.499 50.7979H134.805V45.7361Z" fill="#C97AEF"/>
<path d="M154.101 50.6942C154.101 51.5655 153.969 52.3676 153.706 53.1006C153.443 53.8336 153.047 54.4698 152.521 55.0091C152.008 55.5485 151.363 55.9703 150.586 56.2746C149.81 56.5788 148.916 56.731 147.904 56.731C146.878 56.731 145.976 56.5788 145.2 56.2746C144.423 55.9703 143.772 55.5485 143.245 55.0091C142.732 54.4698 142.344 53.8336 142.08 53.1006C141.817 52.3676 141.685 51.5655 141.685 50.6942V41.6701H144.929V50.5697C144.929 51.0261 144.999 51.4479 145.137 51.8351C145.29 52.2224 145.498 52.5612 145.761 52.8516C146.025 53.1282 146.337 53.3495 146.697 53.5155C147.072 53.6676 147.474 53.7437 147.904 53.7437C148.333 53.7437 148.728 53.6676 149.089 53.5155C149.449 53.3495 149.761 53.1282 150.025 52.8516C150.288 52.5612 150.489 52.2224 150.628 51.8351C150.78 51.4479 150.857 51.0261 150.857 50.5697V41.6701H154.101V50.6942Z" fill="#C97AEF"/>
</svg>
