<svg width="156" height="57" viewBox="0 0 156 57" fill="none" xmlns="http://www.w3.org/2000/svg">
<path d="M57.5592 12.5203C54.5972 18.5552 55.448 24.4015 59.6705 29.5248C63.7039 34.4596 69.1868 36.0312 75.3945 34.8682C80.3418 33.9253 83.7765 30.9393 86.2659 26.696C86.8646 25.8159 86.8646 25.6902 87.1167 24.8101C88.7237 19.4667 88.2826 14.4062 84.8479 9.88C77.4742 0.199026 62.9161 1.58202 57.5592 12.5203ZM77.6633 30.6878C77.3482 30.9078 77.0646 31.2222 76.5919 31.0021C76.6865 30.625 76.9701 30.4992 77.3167 30.4364C79.9636 28.3304 81.8228 25.6587 82.2009 22.2641C82.7996 17.1722 80.909 13.0232 76.5289 10.3515C72.2119 7.74265 67.7058 7.8998 63.3888 10.6029C63.0106 10.8544 62.601 11.0744 62.2229 11.3259C62.1913 11.3259 62.1598 11.263 62.0968 11.2316C63.7669 8.02553 69.1553 6.0139 74.008 6.73683C79.2074 7.52262 83.5874 11.9859 84.4697 17.3608C85.352 22.8299 82.7051 28.0476 77.6633 30.6878Z" fill="white"/>
<path d="M156 1.86491C156 1.11055 155.811 0.859092 155.023 0.890524C153.668 0.953387 152.282 0.984819 150.927 0.890524C149.603 0.764797 149.131 1.11055 149.162 2.55641C149.288 6.13963 149.194 9.72285 149.194 13.589C144.688 9.15707 138.07 11.6088 136.715 17.015C135.423 22.107 135.329 27.1989 136.81 32.228C138.007 36.2198 141.253 38.2 145.16 37.6657C147.019 37.4142 148.28 36.2198 149.572 34.8368C149.635 35.3083 149.698 35.5597 149.666 35.8112C149.509 37.1628 150.17 37.4771 151.399 37.3828C152.597 37.2885 153.794 37.3199 155.023 37.3828C155.779 37.4142 155.968 37.1628 155.968 36.4084C155.968 24.8729 155.968 13.3689 156 1.86491ZM149.225 29.3048C149.225 30.9707 148.5 31.7879 146.893 32.0708C145.097 32.3851 143.963 31.8508 143.364 30.3421C142.293 27.6389 142.639 24.8415 142.702 22.0441C142.734 21.0068 142.828 19.9696 143.206 18.9952C143.837 17.3922 145.066 16.6378 146.767 16.8893C148.437 17.1407 149.225 18.1151 149.257 19.9382C149.257 21.5098 149.257 23.0499 149.257 24.6215C149.257 26.1931 149.225 27.7332 149.225 29.3048Z" fill="white"/>
<path d="M45.1753 11.263C43.0326 11.1058 41.2679 11.8916 39.6294 13.589C39.6294 9.59712 39.5663 5.9196 39.6609 2.24209C39.6924 1.11055 39.3458 0.82766 38.2744 0.890524C37.0139 0.984819 35.7535 1.01625 34.4931 0.890524C33.1696 0.764797 32.8545 1.20484 32.8545 2.52497C32.9175 12.9917 32.886 23.4585 32.886 33.9253C32.886 37.3199 32.886 37.3199 36.2262 37.3199C38.8101 37.3199 38.8101 37.3199 39.4718 35.0254C40.6692 36.4398 41.9927 37.4771 43.9149 37.6657C47.6962 38.0429 50.8158 36.2512 51.8872 32.668C53.4628 27.3246 53.4943 21.8869 51.9187 16.5435C50.9104 13.1175 48.6416 11.5145 45.1753 11.263ZM45.6795 30.2478C45.3644 31.7565 43.8204 32.448 42.0557 32.1651C40.4171 31.9137 39.5979 31.0021 39.5979 29.3363C39.5979 27.7332 39.5979 26.0988 39.5979 24.4958C39.5979 22.8927 39.5979 21.2583 39.5979 19.6553C39.5979 18.2723 40.5117 17.2036 41.8352 16.9521C43.6943 16.6064 45.1753 17.1722 45.5535 18.6809C46.5933 22.5156 46.4988 26.3817 45.6795 30.2478Z" fill="white"/>
<path d="M132.997 20.6925C132.997 18.7752 132.776 16.8579 131.989 15.0662C130.98 12.8032 129.373 11.483 126.758 11.2944C124.111 11.1058 122.031 12.1431 120.235 14.029C119.951 11.703 119.951 11.703 117.777 11.703C117.525 11.703 117.241 11.6716 116.989 11.6402C114.72 11.6402 115.13 11.6402 113.491 12.0174C113.523 12.5831 113.554 13.1489 113.554 13.7461C113.554 21.1954 113.586 28.6448 113.523 36.0941C113.523 37.1313 113.775 37.4456 114.815 37.3828C116.233 37.2885 117.651 37.2885 119.069 37.3828C120.172 37.4771 120.455 37.1313 120.455 36.0312C120.392 30.625 120.424 25.1873 120.424 19.781C120.424 19.1524 120.424 18.5552 120.865 18.0208C121.842 16.8893 123.039 16.6378 124.394 17.0464C125.844 17.4551 126.064 18.7123 126.096 19.9067C126.19 25.313 126.222 30.7507 126.222 36.1569C126.222 37.0685 126.38 37.4771 127.388 37.3828C128.837 37.2885 130.318 37.2885 131.799 37.3828C132.745 37.4456 133.028 37.1628 133.028 36.1884C132.997 31.0021 133.06 25.8473 132.997 20.6925Z" fill="white"/>
<path d="M110.057 11.6402C108.261 11.6088 108.198 11.6402 107.221 11.6402C106.181 11.6716 105.141 11.6716 104.101 11.703C103.723 13.2118 103.597 14.8462 103.723 16.2921C104.007 19.7181 103.818 23.1442 103.881 26.5703C103.912 27.859 104.101 29.1477 103.723 30.4364C103.093 31.8508 101.895 32.228 100.446 32.1023C99.0594 31.9765 98.5552 31.065 98.3661 29.8706C98.051 28.0161 98.114 26.1616 98.3031 24.3072C98.7128 20.0953 98.5867 15.8835 98.051 11.703C95.8768 11.703 93.671 11.703 91.4967 11.703C91.1816 12.1745 91.3391 12.7089 91.3391 13.2118C91.3391 17.5808 91.2761 21.9498 91.3707 26.3502C91.4022 27.2932 91.4022 27.2932 91.4337 29.2105C91.5597 30.1849 91.6227 31.1593 91.8433 32.1337C92.6311 35.9369 95.5932 38.0429 99.406 37.6971C101.36 37.5085 102.809 36.4713 104.479 34.8997C103.912 37.2885 105.046 37.4771 106.622 37.3514C107.725 37.2571 108.828 37.3199 109.899 37.3514C110.529 37.3828 110.845 37.2256 110.845 36.5027C110.845 28.5505 110.845 20.5982 110.876 12.646C110.876 12.0488 110.782 11.6088 110.057 11.6402Z" fill="white"/>
<path d="M30.0185 24.3386C30.0185 21.7926 30.1445 19.2152 29.5458 16.7321C28.9471 14.3433 27.9387 12.2374 25.1973 11.5459C22.0777 10.7287 19.4938 11.6088 17.1934 14.1547C16.9414 11.703 16.9414 11.703 14.7356 11.703C13.6957 11.703 12.6243 11.7345 11.5845 11.703C10.8597 11.6716 10.5761 11.8602 10.5761 12.646C10.6076 20.5668 10.6076 28.4876 10.5761 36.4084C10.5761 37.1313 10.7337 37.4142 11.5214 37.3828C12.9709 37.3199 14.452 37.2571 15.933 37.3828C17.2565 37.5085 17.4455 36.9427 17.414 35.8112C17.351 30.4049 17.3825 24.9672 17.3825 19.561C17.3825 18.0837 18.3278 17.1407 19.9034 16.8893C21.3844 16.6693 22.4243 17.2979 22.897 18.7438C23.2121 19.7496 23.2121 20.7868 23.2121 21.8241C23.2121 26.5703 23.2436 31.3165 23.1806 36.0312C23.1806 37.0056 23.3381 37.4142 24.441 37.3514C25.859 37.2571 27.277 37.2571 28.695 37.3514C29.7034 37.4142 30.0185 37.0999 29.987 36.0627C29.987 32.1651 30.0185 28.2676 30.0185 24.3386Z" fill="white"/>
<path d="M6.70023 11.9545C5.59734 11.043 3.2025 11.703 1.37485 11.6716C1.31183 11.6716 1.28032 11.6716 1.21729 11.6716C0.429516 11.5459 0.271961 11.9231 0.271961 12.646C0.303472 20.5668 0.303472 28.4562 0.303472 36.377C0.303472 37.1313 0.492539 37.3514 1.28032 37.3514C2.85587 37.2885 4.43143 37.2885 5.97548 37.3514C6.8893 37.3828 7.10988 37.0685 7.07837 36.2198C7.04685 32.3223 7.04685 28.4247 7.04685 24.4958C7.04685 22.0441 7.07837 19.5924 7.04685 17.1722C7.01534 15.3491 7.83463 12.8975 6.70023 11.9545Z" fill="white"/>
<path d="M6.19605 2.33638C5.91245 2.11636 5.59734 1.92777 5.31374 1.70775C4.0533 1.58202 2.76134 1.39343 1.56392 1.9592C-0.0116395 3.59365 -0.389773 5.13381 0.398005 6.67397C1.09125 8.05696 2.6353 8.77989 4.3369 8.49701C5.81792 8.27698 6.70023 7.33403 7.23592 6.0139C7.99219 4.28515 7.67708 3.18504 6.19605 2.33638Z" fill="white"/>
<path d="M77.3167 30.4364C77.0016 30.5307 76.6865 30.625 76.5919 31.0021C77.0646 31.2222 77.3482 30.9078 77.6633 30.6878C77.5058 30.625 77.3482 30.625 77.3167 30.4364Z" fill="white"/>
<path d="M77.6633 30.6878C77.5373 30.5935 77.4112 30.4992 77.3167 30.4049C77.3482 30.625 77.5058 30.625 77.6633 30.6878Z" fill="white"/>
<path d="M1.48577 41.8059H6.39394L9.78391 51.39H9.82551L13.2363 41.8059H18.1237V56.4933H14.8793V45.2288H14.8377L10.9694 56.4933H8.49448L4.77175 45.2288H4.73016V56.4933H1.48577V41.8059Z" fill="white"/>
<path d="M25.9712 41.8059H28.6541L35.0597 56.4933H31.3993L30.1307 53.3815H24.4114L23.1844 56.4933H19.6072L25.9712 41.8059ZM27.2191 46.0793L25.4305 50.6432H29.0285L27.2191 46.0793Z" fill="white"/>
<path d="M36.5407 41.8059H42.2392C42.9879 41.8059 43.695 41.8819 44.3605 42.0341C45.0399 42.1724 45.6291 42.4144 46.1283 42.7601C46.6413 43.092 47.0433 43.5484 47.3345 44.1293C47.6395 44.6963 47.792 45.4086 47.792 46.266C47.792 47.3033 47.5217 48.1884 46.9809 48.9214C46.4402 49.6405 45.6499 50.0969 44.6101 50.2905L48.3536 56.4933H44.4645L41.3865 50.6225H39.7851V56.4933H36.5407V41.8059ZM39.7851 47.8841H41.6984C41.9896 47.8841 42.2946 47.8772 42.6135 47.8634C42.9463 47.8357 43.2444 47.7735 43.5078 47.6767C43.7712 47.566 43.9861 47.4001 44.1525 47.1788C44.3328 46.9575 44.4229 46.6464 44.4229 46.2453C44.4229 45.8719 44.3466 45.5745 44.1941 45.3532C44.0416 45.132 43.8475 44.966 43.6118 44.8554C43.3761 44.7309 43.1057 44.6479 42.8007 44.6064C42.4957 44.5649 42.1976 44.5442 41.9064 44.5442H39.7851V47.8841Z" fill="white"/>
<path d="M50.1512 41.8059H53.3956V47.9049L59.1149 41.8059H63.3576L56.8064 48.6309L63.9191 56.4933H59.3853L53.3956 49.523V56.4933H50.1512V41.8059Z" fill="white"/>
<path d="M65.1603 41.8059H75.1638V44.7931H68.4047V47.5315H74.7894V50.5187H68.4047V53.506H75.5381V56.4933H65.1603V41.8059Z" fill="white"/>
<path d="M80.9846 44.6687H76.7836V41.8059H88.4301V44.6687H84.229V56.4933H80.9846V44.6687Z" fill="white"/>
<path d="M90.036 41.8059H93.2804V56.4933H90.036V41.8059Z" fill="white"/>
<path d="M96.2315 41.8059H100.641L106.901 52.0124H106.942V41.8059H110.187V56.4933H105.944L99.5175 46.0378H99.4759V56.4933H96.2315V41.8059Z" fill="white"/>
<path d="M126.521 55.456C125.565 55.9539 124.566 56.3135 123.527 56.5348C122.487 56.7561 121.426 56.8667 120.345 56.8667C119.194 56.8667 118.133 56.6869 117.163 56.3273C116.192 55.9678 115.353 55.456 114.646 54.7922C113.939 54.1145 113.384 53.2986 112.982 52.3443C112.594 51.39 112.4 50.3251 112.4 49.1496C112.4 47.974 112.594 46.9091 112.982 45.9549C113.384 45.0006 113.939 44.1915 114.646 43.5277C115.353 42.85 116.192 42.3314 117.163 41.9718C118.133 41.6122 119.194 41.4325 120.345 41.4325C121.523 41.4325 122.605 41.5777 123.589 41.8681C124.587 42.1447 125.461 42.6287 126.209 43.3202L123.922 45.8096C123.478 45.3532 122.979 45.0075 122.424 44.7724C121.87 44.5373 121.176 44.4197 120.345 44.4197C119.651 44.4197 119.02 44.5373 118.452 44.7724C117.897 45.0075 117.419 45.3394 117.017 45.7681C116.615 46.183 116.303 46.6809 116.081 47.2618C115.873 47.8426 115.769 48.4719 115.769 49.1496C115.769 49.8411 115.873 50.4772 116.081 51.0581C116.303 51.6251 116.615 52.123 117.017 52.5517C117.419 52.9666 117.897 53.2916 118.452 53.5268C119.02 53.7619 119.651 53.8794 120.345 53.8794C121.052 53.8794 121.662 53.8034 122.175 53.6512C122.688 53.4853 123.097 53.3193 123.402 53.1534V50.7677H120.761V47.7804H126.521V55.456Z" fill="white"/>
<path d="M134.805 53.5475H128.379V50.9336L134.389 41.8059H137.8V50.9336H139.693V53.5475H137.8V56.4933H134.805V53.5475ZM134.805 45.8719H134.764L131.499 50.9336H134.805V45.8719Z" fill="white"/>
<path d="M154.101 50.8299C154.101 51.7012 153.969 52.5033 153.706 53.2363C153.443 53.9693 153.047 54.6055 152.521 55.1449C152.008 55.6842 151.363 56.106 150.586 56.4103C149.81 56.7146 148.916 56.8667 147.904 56.8667C146.878 56.8667 145.976 56.7146 145.2 56.4103C144.423 56.106 143.772 55.6842 143.245 55.1449C142.732 54.6055 142.344 53.9693 142.08 53.2363C141.817 52.5033 141.685 51.7012 141.685 50.8299V41.8059H144.929V50.7054C144.929 51.1618 144.999 51.5836 145.137 51.9709C145.29 52.3581 145.498 52.697 145.761 52.9874C146.025 53.264 146.337 53.4853 146.697 53.6512C147.072 53.8034 147.474 53.8794 147.904 53.8794C148.333 53.8794 148.728 53.8034 149.089 53.6512C149.449 53.4853 149.761 53.264 150.025 52.9874C150.288 52.697 150.489 52.3581 150.628 51.9709C150.78 51.5836 150.857 51.1618 150.857 50.7054V41.8059H154.101V50.8299Z" fill="white"/>
</svg>
