<svg width="156" height="56" viewBox="0 0 156 56" fill="none" xmlns="http://www.w3.org/2000/svg">
<path d="M57.5592 11.6536C54.5972 17.6885 55.448 23.5348 59.6705 28.6581C63.7039 33.5929 69.1868 35.1645 75.3945 34.0015C80.3418 33.0586 83.7765 30.0726 86.2659 25.8293C86.8646 24.9492 86.8646 24.8235 87.1167 23.9434C88.7237 18.6 88.2826 13.5395 84.8479 9.0133C77.4742 -0.667673 62.9161 0.715322 57.5592 11.6536ZM77.6633 29.8211C77.3482 30.0411 77.0646 30.3555 76.5919 30.1354C76.6865 29.7583 76.9701 29.6325 77.3167 29.5697C79.9636 27.4637 81.8228 24.792 82.2009 21.3974C82.7996 16.3055 80.909 12.1565 76.5289 9.48478C72.2119 6.87595 67.7058 7.0331 63.3888 9.73623C63.0106 9.98769 62.601 10.2077 62.2229 10.4592C62.1913 10.4592 62.1598 10.3963 62.0968 10.3649C63.7669 7.15883 69.1553 5.1472 74.008 5.87013C79.2074 6.65592 83.5874 11.1192 84.4697 16.4941C85.352 21.9632 82.7051 27.1809 77.6633 29.8211Z" fill="#C97AEF"/>
<path d="M156 0.998209C156 0.243847 155.811 -0.00760712 155.023 0.0238246C153.668 0.0866881 152.282 0.11812 150.927 0.0238246C149.603 -0.101902 149.131 0.243847 149.162 1.68971C149.288 5.27293 149.194 8.85615 149.194 12.7223C144.688 8.29037 138.07 10.7421 136.715 16.1483C135.423 21.2403 135.329 26.3322 136.81 31.3613C138.007 35.3531 141.253 37.3333 145.16 36.799C147.019 36.5475 148.28 35.3531 149.572 33.9701C149.635 34.4416 149.698 34.693 149.666 34.9445C149.509 36.2961 150.17 36.6104 151.399 36.5161C152.597 36.4218 153.794 36.4532 155.023 36.5161C155.779 36.5475 155.968 36.2961 155.968 35.5417C155.968 24.0062 155.968 12.5022 156 0.998209ZM149.225 28.4381C149.225 30.104 148.5 30.9212 146.893 31.2041C145.097 31.5184 143.963 30.9841 143.364 29.4754C142.293 26.7722 142.639 23.9748 142.702 21.1774C142.734 20.1401 142.828 19.1029 143.206 18.1285C143.837 16.5255 145.066 15.7711 146.767 16.0226C148.437 16.274 149.225 17.2484 149.257 19.0715C149.257 20.6431 149.257 22.1832 149.257 23.7548C149.257 25.3264 149.225 26.8665 149.225 28.4381Z" fill="#C97AEF"/>
<path d="M45.1753 10.3963C43.0326 10.2391 41.2679 11.0249 39.6294 12.7223C39.6294 8.73042 39.5663 5.0529 39.6609 1.37539C39.6924 0.243847 39.3458 -0.0390389 38.2744 0.0238246C37.0139 0.11812 35.7535 0.149552 34.4931 0.0238246C33.1696 -0.101902 32.8545 0.338142 32.8545 1.65828C32.9175 12.125 32.886 22.5918 32.886 33.0586C32.886 36.4532 32.886 36.4532 36.2262 36.4532C38.8101 36.4532 38.8101 36.4532 39.4718 34.1587C40.6692 35.5731 41.9927 36.6104 43.9149 36.799C47.6962 37.1762 50.8158 35.3845 51.8872 31.8013C53.4628 26.4579 53.4943 21.0202 51.9187 15.6768C50.9104 12.2508 48.6416 10.6478 45.1753 10.3963ZM45.6795 29.3811C45.3644 30.8898 43.8204 31.5813 42.0557 31.2984C40.4171 31.047 39.5979 30.1354 39.5979 28.4696C39.5979 26.8665 39.5979 25.2321 39.5979 23.6291C39.5979 22.026 39.5979 20.3916 39.5979 18.7886C39.5979 17.4056 40.5117 16.3369 41.8352 16.0854C43.6943 15.7397 45.1753 16.3055 45.5535 17.8142C46.5933 21.6489 46.4988 25.515 45.6795 29.3811Z" fill="#C97AEF"/>
<path d="M132.997 19.8258C132.997 17.9085 132.776 15.9912 131.989 14.1995C130.98 11.9365 129.373 10.6163 126.758 10.4277C124.111 10.2391 122.031 11.2764 120.235 13.1623C119.951 10.8363 119.951 10.8363 117.777 10.8363C117.525 10.8363 117.241 10.8049 116.989 10.7735C114.72 10.7735 115.13 10.7735 113.491 11.1507C113.523 11.7164 113.554 12.2822 113.554 12.8794C113.554 20.3287 113.586 27.7781 113.523 35.2274C113.523 36.2646 113.775 36.5789 114.815 36.5161C116.233 36.4218 117.651 36.4218 119.069 36.5161C120.172 36.6104 120.455 36.2646 120.455 35.1645C120.392 29.7583 120.424 24.3206 120.424 18.9143C120.424 18.2857 120.424 17.6885 120.865 17.1541C121.842 16.0226 123.039 15.7711 124.394 16.1797C125.844 16.5884 126.064 17.8456 126.096 19.04C126.19 24.4463 126.222 29.884 126.222 35.2902C126.222 36.2018 126.38 36.6104 127.388 36.5161C128.837 36.4218 130.318 36.4218 131.799 36.5161C132.745 36.5789 133.028 36.2961 133.028 35.3217C132.997 30.1354 133.06 24.9806 132.997 19.8258Z" fill="#C97AEF"/>
<path d="M110.057 10.7735C108.261 10.7421 108.198 10.7735 107.221 10.7735C106.181 10.8049 105.141 10.8049 104.101 10.8363C103.723 12.3451 103.597 13.9795 103.723 15.4254C104.007 18.8514 103.818 22.2775 103.881 25.7036C103.912 26.9923 104.101 28.281 103.723 29.5697C103.093 30.9841 101.895 31.3613 100.446 31.2356C99.0594 31.1098 98.5552 30.1983 98.3661 29.0039C98.051 27.1494 98.114 25.295 98.3031 23.4405C98.7128 19.2286 98.5867 15.0168 98.051 10.8363C95.8768 10.8363 93.671 10.8363 91.4967 10.8363C91.1816 11.3078 91.3391 11.8422 91.3391 12.3451C91.3391 16.7141 91.2761 21.0831 91.3707 25.4835C91.4022 26.4265 91.4022 26.4265 91.4337 28.3438C91.5597 29.3182 91.6227 30.2926 91.8433 31.267C92.6311 35.0702 95.5932 37.1762 99.406 36.8304C101.36 36.6418 102.809 35.6046 104.479 34.033C103.912 36.4218 105.046 36.6104 106.622 36.4847C107.725 36.3904 108.828 36.4532 109.899 36.4847C110.529 36.5161 110.845 36.3589 110.845 35.636C110.845 27.6838 110.845 19.7315 110.876 11.7793C110.876 11.1821 110.782 10.7421 110.057 10.7735Z" fill="#C97AEF"/>
<path d="M30.0185 23.4719C30.0185 20.9259 30.1445 18.3485 29.5458 15.8654C28.9471 13.4766 27.9387 11.3707 25.1973 10.6792C22.0777 9.86196 19.4938 10.7421 17.1934 13.288C16.9414 10.8363 16.9414 10.8363 14.7356 10.8363C13.6957 10.8363 12.6243 10.8678 11.5845 10.8363C10.8597 10.8049 10.5761 10.9935 10.5761 11.7793C10.6076 19.7001 10.6076 27.6209 10.5761 35.5417C10.5761 36.2646 10.7337 36.5475 11.5214 36.5161C12.9709 36.4532 14.452 36.3904 15.933 36.5161C17.2565 36.6418 17.4455 36.076 17.414 34.9445C17.351 29.5382 17.3825 24.1005 17.3825 18.6943C17.3825 17.217 18.3278 16.274 19.9034 16.0226C21.3844 15.8026 22.4243 16.4312 22.897 17.8771C23.2121 18.8829 23.2121 19.9201 23.2121 20.9574C23.2121 25.7036 23.2436 30.4498 23.1806 35.1645C23.1806 36.1389 23.3381 36.5475 24.441 36.4847C25.859 36.3904 27.277 36.3904 28.695 36.4847C29.7034 36.5475 30.0185 36.2332 29.987 35.196C29.987 31.2984 30.0185 27.4009 30.0185 23.4719Z" fill="#C97AEF"/>
<path d="M6.70023 11.0878C5.59734 10.1763 3.2025 10.8363 1.37485 10.8049C1.31183 10.8049 1.28032 10.8049 1.21729 10.8049C0.429516 10.6792 0.271961 11.0564 0.271961 11.7793C0.303472 19.7001 0.303472 27.5895 0.303472 35.5103C0.303472 36.2646 0.492539 36.4847 1.28032 36.4847C2.85587 36.4218 4.43143 36.4218 5.97548 36.4847C6.8893 36.5161 7.10988 36.2018 7.07837 35.3531C7.04685 31.4556 7.04685 27.558 7.04685 23.6291C7.04685 21.1774 7.07837 18.7257 7.04685 16.3055C7.01534 14.4824 7.83463 12.0308 6.70023 11.0878Z" fill="#C97AEF"/>
<path d="M6.19605 1.46968C5.91245 1.24966 5.59734 1.06107 5.31374 0.84105C4.0533 0.715323 2.76134 0.526733 1.56392 1.0925C-0.0116395 2.72695 -0.389773 4.26711 0.398005 5.80727C1.09125 7.19026 2.6353 7.91319 4.3369 7.63031C5.81792 7.41029 6.70023 6.46733 7.23592 5.1472C7.99219 3.41845 7.67708 2.31834 6.19605 1.46968Z" fill="#C97AEF"/>
<path d="M77.3167 29.5697C77.0016 29.664 76.6865 29.7583 76.5919 30.1354C77.0646 30.3555 77.3482 30.0411 77.6633 29.8211C77.5058 29.7583 77.3482 29.7583 77.3167 29.5697Z" fill="#C97AEF"/>
<path d="M77.6633 29.8211C77.5373 29.7268 77.4112 29.6325 77.3167 29.5382C77.3482 29.7583 77.5058 29.7583 77.6633 29.8211Z" fill="#C97AEF"/>
<path d="M1.48577 40.9392H6.39394L9.78391 50.5233H9.82551L13.2363 40.9392H18.1237V55.6266H14.8793V44.3621H14.8377L10.9694 55.6266H8.49448L4.77175 44.3621H4.73016V55.6266H1.48577V40.9392Z" fill="#C97AEF"/>
<path d="M25.9712 40.9392H28.6541L35.0597 55.6266H31.3993L30.1307 52.5148H24.4114L23.1844 55.6266H19.6072L25.9712 40.9392ZM27.2191 45.2126L25.4305 49.7765H29.0285L27.2191 45.2126Z" fill="#C97AEF"/>
<path d="M36.5407 40.9392H42.2392C42.9879 40.9392 43.695 41.0152 44.3605 41.1674C45.0399 41.3057 45.6291 41.5477 46.1283 41.8934C46.6413 42.2253 47.0433 42.6817 47.3345 43.2626C47.6395 43.8296 47.792 44.5419 47.792 45.3993C47.792 46.4366 47.5217 47.3217 46.9809 48.0547C46.4402 48.7738 45.6499 49.2302 44.6101 49.4238L48.3536 55.6266H44.4645L41.3865 49.7558H39.7851V55.6266H36.5407V40.9392ZM39.7851 47.0174H41.6984C41.9896 47.0174 42.2946 47.0105 42.6135 46.9967C42.9463 46.969 43.2444 46.9068 43.5078 46.81C43.7712 46.6993 43.9861 46.5334 44.1525 46.3121C44.3328 46.0908 44.4229 45.7797 44.4229 45.3786C44.4229 45.0052 44.3466 44.7078 44.1941 44.4865C44.0416 44.2653 43.8475 44.0993 43.6118 43.9887C43.3761 43.8642 43.1057 43.7812 42.8007 43.7397C42.4957 43.6982 42.1976 43.6775 41.9064 43.6775H39.7851V47.0174Z" fill="#C97AEF"/>
<path d="M50.1512 40.9392H53.3956V47.0382L59.1149 40.9392H63.3576L56.8064 47.7642L63.9191 55.6266H59.3853L53.3956 48.6563V55.6266H50.1512V40.9392Z" fill="#C97AEF"/>
<path d="M65.1603 40.9392H75.1638V43.9264H68.4047V46.6648H74.7894V49.652H68.4047V52.6393H75.5381V55.6266H65.1603V40.9392Z" fill="#C97AEF"/>
<path d="M80.9846 43.802H76.7836V40.9392H88.4301V43.802H84.229V55.6266H80.9846V43.802Z" fill="#C97AEF"/>
<path d="M90.036 40.9392H93.2804V55.6266H90.036V40.9392Z" fill="#C97AEF"/>
<path d="M96.2315 40.9392H100.641L106.901 51.1457H106.942V40.9392H110.187V55.6266H105.944L99.5175 45.1711H99.4759V55.6266H96.2315V40.9392Z" fill="#C97AEF"/>
<path d="M126.521 54.5893C125.565 55.0872 124.566 55.4468 123.527 55.6681C122.487 55.8894 121.426 56 120.345 56C119.194 56 118.133 55.8202 117.163 55.4606C116.192 55.1011 115.353 54.5893 114.646 53.9255C113.939 53.2478 113.384 52.4319 112.982 51.4776C112.594 50.5233 112.4 49.4584 112.4 48.2829C112.4 47.1073 112.594 46.0424 112.982 45.0882C113.384 44.1339 113.939 43.3248 114.646 42.661C115.353 41.9833 116.192 41.4647 117.163 41.1051C118.133 40.7455 119.194 40.5658 120.345 40.5658C121.523 40.5658 122.605 40.711 123.589 41.0014C124.587 41.278 125.461 41.762 126.209 42.4535L123.922 44.9429C123.478 44.4865 122.979 44.1408 122.424 43.9057C121.87 43.6706 121.176 43.553 120.345 43.553C119.651 43.553 119.02 43.6706 118.452 43.9057C117.897 44.1408 117.419 44.4727 117.017 44.9014C116.615 45.3163 116.303 45.8142 116.081 46.3951C115.873 46.9759 115.769 47.6052 115.769 48.2829C115.769 48.9744 115.873 49.6105 116.081 50.1914C116.303 50.7584 116.615 51.2563 117.017 51.685C117.419 52.0999 117.897 52.4249 118.452 52.6601C119.02 52.8952 119.651 53.0127 120.345 53.0127C121.052 53.0127 121.662 52.9367 122.175 52.7845C122.688 52.6186 123.097 52.4526 123.402 52.2867V49.901H120.761V46.9137H126.521V54.5893Z" fill="#C97AEF"/>
<path d="M134.805 52.6808H128.379V50.0669L134.389 40.9392H137.8V50.0669H139.693V52.6808H137.8V55.6266H134.805V52.6808ZM134.805 45.0052H134.764L131.499 50.0669H134.805V45.0052Z" fill="#C97AEF"/>
<path d="M154.101 49.9632C154.101 50.8345 153.969 51.6366 153.706 52.3696C153.443 53.1026 153.047 53.7388 152.521 54.2782C152.008 54.8175 151.363 55.2393 150.586 55.5436C149.81 55.8479 148.916 56 147.904 56C146.878 56 145.976 55.8479 145.2 55.5436C144.423 55.2393 143.772 54.8175 143.245 54.2782C142.732 53.7388 142.344 53.1026 142.08 52.3696C141.817 51.6366 141.685 50.8345 141.685 49.9632V40.9392H144.929V49.8387C144.929 50.2951 144.999 50.7169 145.137 51.1042C145.29 51.4914 145.498 51.8303 145.761 52.1207C146.025 52.3973 146.337 52.6186 146.697 52.7845C147.072 52.9367 147.474 53.0127 147.904 53.0127C148.333 53.0127 148.728 52.9367 149.089 52.7845C149.449 52.6186 149.761 52.3973 150.025 52.1207C150.288 51.8303 150.489 51.4914 150.628 51.1042C150.78 50.7169 150.857 50.2951 150.857 49.8387V40.9392H154.101V49.9632Z" fill="#C97AEF"/>
</svg>
